<svg xmlns="http://www.w3.org/2000/svg" xmlns:xlink="http://www.w3.org/1999/xlink" width="500" zoomAndPan="magnify" viewBox="0 0 375 374.999991" height="500" preserveAspectRatio="xMidYMid meet" version="1.0"><path fill="#000000" d="M 193.382812 133.378906 L 149.976562 176.785156 L 274.203125 176.785156 L 274.203125 205.722656 L 149.976562 205.722656 L 193.382812 249.128906 L 172.921875 269.589844 L 94.585938 191.253906 L 172.921875 112.914062 Z M 193.382812 133.378906 " fill-opacity="1" fill-rule="nonzero"/><path fill="#000000" d="M 28.234375 191.253906 C 28.234375 103.351562 99.492188 32.097656 187.390625 32.097656 C 275.289062 32.097656 346.546875 103.351562 346.546875 191.253906 C 346.546875 279.152344 275.289062 350.410156 187.390625 350.410156 C 99.492188 350.410156 28.234375 279.152344 28.234375 191.253906 Z M 187.390625 61.035156 C 115.472656 61.035156 57.171875 119.335938 57.171875 191.253906 C 57.171875 263.171875 115.472656 321.472656 187.390625 321.472656 C 259.308594 321.472656 317.609375 263.171875 317.609375 191.253906 C 317.609375 119.335938 259.308594 61.035156 187.390625 61.035156 Z M 187.390625 61.035156 " fill-opacity="1" fill-rule="evenodd"/></svg>