<svg xmlns="http://www.w3.org/2000/svg" xmlns:xlink="http://www.w3.org/1999/xlink" width="500" zoomAndPan="magnify" viewBox="0 0 375 374.999991" height="500" preserveAspectRatio="xMidYMid meet" version="1.0"><path fill="#ffffff" d="M 193.492188 129.585938 L 150.0625 173.019531 L 274.363281 173.019531 L 274.363281 201.972656 L 150.0625 201.972656 L 193.492188 245.40625 L 173.019531 265.882812 L 94.632812 187.496094 L 173.019531 109.113281 Z M 193.492188 129.585938 " fill-opacity="1" fill-rule="nonzero"/><path fill="#ffffff" d="M 28.242188 187.496094 C 28.242188 99.542969 99.542969 28.242188 187.496094 28.242188 C 275.449219 28.242188 346.75 99.542969 346.75 187.496094 C 346.75 275.449219 275.449219 346.75 187.496094 346.75 C 99.542969 346.75 28.242188 275.449219 28.242188 187.496094 Z M 187.496094 57.199219 C 115.535156 57.199219 57.199219 115.535156 57.199219 187.496094 C 57.199219 259.457031 115.535156 317.792969 187.496094 317.792969 C 259.457031 317.792969 317.792969 259.457031 317.792969 187.496094 C 317.792969 115.535156 259.457031 57.199219 187.496094 57.199219 Z M 187.496094 57.199219 " fill-opacity="1" fill-rule="evenodd"/></svg>